# xmcd
#
# Track frame offsets: 
#        150
#        33508
#        63895
#        139159
#        164955
#        185710
#
# Disc length: 3157 seconds
#
# Revision: 0
# Processed by: cddbd v1.5.2PL0 Copyright (c) Steve Scherf et al.
# Submitted via: ExactAudioCopy v0.95b4
#
DISCID=590c5306
DTITLE=John Butler Trio - Live at St. Gallen CD2
DYEAR=2005
DGENRE=Blues
TTITLE0=Peaches and Cream
TTITLE1=Pickapart (St. Gallen Vers)
TTITLE2=Betterman
TTITLE3=Hello
TTITLE4=Zebra
TTITLE5=Take
EXTD=
EXTT0=
EXTT1=
EXTT2=
EXTT3=
EXTT4=
EXTT5=
PLAYORDER=
